<?xml version="1.0" encoding="UTF-8" standalone="no"?>
<svg
   xmlns:dc="http://purl.org/dc/elements/1.1/"
   xmlns:cc="http://creativecommons.org/ns#"
   xmlns:rdf="http://www.w3.org/1999/02/22-rdf-syntax-ns#"
   xmlns:svg="http://www.w3.org/2000/svg"
   xmlns="http://www.w3.org/2000/svg"
   xmlns:sodipodi="http://sodipodi.sourceforge.net/DTD/sodipodi-0.dtd"
   xmlns:inkscape="http://www.inkscape.org/namespaces/inkscape"
   width="521.5788"
   height="561.5788"
   overflow="hidden"
   version="1.1"
   id="svg46"
   sodipodi:docname="harvestair_1.svg"
   style="overflow:hidden"
   inkscape:version="0.92.4 (5da689c313, 2019-01-14)">
  <metadata
     id="metadata50">
    <rdf:RDF>
      <cc:Work
         rdf:about="">
        <dc:format>image/svg+xml</dc:format>
        <dc:type
           rdf:resource="http://purl.org/dc/dcmitype/StillImage" />
        <dc:title></dc:title>
      </cc:Work>
    </rdf:RDF>
  </metadata>
  <sodipodi:namedview
     pagecolor="#ffffff"
     bordercolor="#666666"
     borderopacity="1"
     objecttolerance="10"
     gridtolerance="10"
     guidetolerance="10"
     inkscape:pageopacity="0"
     inkscape:pageshadow="2"
     inkscape:window-width="1920"
     inkscape:window-height="1019"
     id="namedview48"
     showgrid="false"
     fit-margin-top="101.99414"
     fit-margin-left="20"
     fit-margin-right="20"
     fit-margin-bottom="101.99414"
     viewbox-height="500"
     inkscape:zoom="0.41041931"
     inkscape:cx="-50.566358"
     inkscape:cy="512.77777"
     inkscape:window-x="0"
     inkscape:window-y="768"
     inkscape:window-maximized="1"
     inkscape:current-layer="g44" />
  <defs
     id="defs14">
    <clipPath
       id="clip0">
      <path
         d="M -113,65 H 1461 V 846 H -113 Z"
         id="path2"
         inkscape:connector-curvature="0"
         style="clip-rule:evenodd;fill-rule:evenodd" />
    </clipPath>
    <clipPath
       id="clip1">
      <path
         d="m 734,65 h 507 V 483 H 734 Z"
         id="path5"
         inkscape:connector-curvature="0"
         style="clip-rule:evenodd;fill-rule:evenodd" />
    </clipPath>
    <clipPath
       id="clip2">
      <path
         d="m 734,65 h 507 V 484 H 734 Z"
         id="path8"
         inkscape:connector-curvature="0"
         style="clip-rule:evenodd;fill-rule:evenodd" />
    </clipPath>
    <clipPath
       id="clip3">
      <path
         d="m 734,65 h 507 V 484 H 734 Z"
         id="path11"
         inkscape:connector-curvature="0"
         style="clip-rule:evenodd;fill-rule:evenodd" />
    </clipPath>
  </defs>
  <g
     clip-path="url(#clip0)"
     transform="translate(-724.4582,9.99404)"
     id="g44">
    <path
       d="m 913.5,168 c 0,-41.697 32.459,-75.4999 72.5,-75.4999 40.04,0 72.5,33.8029 72.5,75.4999 0,41.698 -32.46,75.5 -72.5,75.5 -40.041,0 -72.5,-33.802 -72.5,-75.5 z m 15.535,0 c 0,33.118 25.504,59.965 56.965,59.965 31.46,0 56.96,-26.847 56.96,-59.965 0,-33.118 -25.5,-59.965 -56.96,-59.965 -31.461,0 -56.965,26.847 -56.965,59.965 z"
       stroke-miterlimit="8"
       id="path16"
       inkscape:connector-curvature="0"
       style="fill:#00a1f3;fill-rule:evenodd;stroke:#00a1f3;stroke-miterlimit:8" />
    <path
       d="m 942.5,169 c 0,-26.233 19.7,-47.5 44,-47.5 24.3,0 44,21.267 44,47.5 0,26.234 -19.7,47.5 -44,47.5 -24.3,0 -44,-21.266 -44,-47.5 z m 10.548,0 c 0,20.408 14.977,36.952 33.452,36.952 18.48,0 33.45,-16.544 33.45,-36.952 0,-20.408 -14.97,-36.952 -33.45,-36.952 -18.475,0 -33.452,16.544 -33.452,36.952 z"
       stroke-miterlimit="8"
       id="path18"
       inkscape:connector-curvature="0"
       style="fill:#00a1f3;fill-rule:evenodd;stroke:#00a1f3;stroke-miterlimit:8" />
    <path
       d="m 965.5,168.5 c 0,-12.15 9.178,-22 20.5,-22 11.322,0 20.5,9.85 20.5,22 0,12.15 -9.178,22 -20.5,22 -11.322,0 -20.5,-9.85 -20.5,-22 z"
       stroke-miterlimit="8"
       id="path20"
       inkscape:connector-curvature="0"
       style="fill:#00a1f3;fill-rule:evenodd;stroke:#00a1f3;stroke-miterlimit:8" />
    <path
       d="M 0,0 H 90 L 45,56 Z"
       transform="matrix(1,0,0,-1,941,247)"
       id="path22"
       inkscape:connector-curvature="0"
       style="fill:#ffffff;fill-rule:evenodd" />
    <g
       clip-path="url(#clip1)"
       id="g38">
      <g
         clip-path="url(#clip2)"
         id="g36">
        <g
           clip-path="url(#clip3)"
           id="g34">
          <path
             d="m 248.753,242.317 c -2.708,-1.124 -5.517,-5.364 -7.305,-11.186 -0.459,-1.38 -1.634,-5.313 -2.707,-8.684 -1.021,-3.371 -2.043,-6.334 -2.247,-6.64 -0.307,-0.409 -4.035,-11.952 -5.415,-16.703 -0.255,-0.868 -1.583,-0.919 -18.235,-0.919 -22.576,-0.051 -22.934,-0.153 -24.568,-6.334 -0.869,-3.218 -0.92,-3.269 -3.116,-3.831 -3.218,-0.817 -93.6272,-0.766 -96.3344,0.051 l -1.992,0.562 v 15.119 c -0.0511,10.676 -0.2044,15.528 -0.6641,16.448 -0.7151,1.583 -3.1668,3.728 -4.8524,4.239 -1.6856,0.562 -4.2906,-0.511 -6.2827,-2.554 l -1.7367,-1.787 -0.1532,-16.039 -0.1532,-16.039 -1.8899,-0.306 c -4.0352,-0.613 -5.7208,-1.379 -8.1726,-3.576 -4.1885,-3.78 -4.1885,-3.831 -4.1885,-27.429 0,-13.076 0.2044,-21.198 0.5619,-22.628 0.3576,-1.481 1.3791,-3.013 3.0647,-4.801 2.0432,-2.145 3.0647,-2.758 6.0784,-3.678 3.269,-0.97 4.4438,-1.072 12.9229,-0.817 5.1078,0.102 10.1646,0.511 11.1862,0.817 2.5539,0.817 6.7423,4.699 7.8656,7.304 0.869,2.044 0.92,3.729 0.767,21.709 l -0.154,19.563 36.266,0.102 36.266,0.153 -2.656,-2.962 c -6.436,-7.253 -14.098,-16.499 -14.098,-17.06 0,-0.358 -0.408,-0.869 -0.868,-1.124 -0.511,-0.307 -0.715,-0.562 -0.511,-0.562 0.255,0 -0.255,-0.715 -1.175,-1.584 -0.868,-0.868 -1.89,-2.247 -2.349,-3.064 -0.409,-0.817 -1.431,-2.452 -2.299,-3.678 -3.218,-4.444 -6.589,-9.807 -6.589,-10.42 0,-0.357 -0.306,-0.817 -0.715,-1.021 -0.409,-0.205 -1.686,-2.248 -2.861,-4.495 -1.174,-2.248 -2.809,-5.108 -3.626,-6.385 -0.766,-1.277 -2.145,-3.882 -3.014,-5.874 -0.868,-1.941 -2.503,-5.415 -3.575,-7.662 -1.073,-2.248 -2.912,-6.845 -4.035,-10.2158 -1.175,-3.3711 -2.248,-6.4869 -2.452,-6.8956 -0.205,-0.4086 -0.358,-0.9705 -0.409,-1.2769 0,-0.2554 -0.306,-0.9705 -0.613,-1.5324 -0.715,-1.277 -3.882,-13.5869 -4.75,-18.3883 -0.358,-1.941 -0.817,-3.6776 -1.022,-3.8309 -1.072,-0.7661 -3.933,-27.8378 -3.269,-30.8514 0.358,-1.7367 3.218,-4.3928 5.67,-5.2611 1.583,-0.5619 2.094,-0.5108 4.24,0.4086 1.379,0.613 2.86,1.4813 3.32,1.9921 0.51,0.5618 1.277,3.269 1.838,6.487 1.226,6.5891 1.277,6.8445 1.635,7.815 0.153,0.4086 0.766,2.9625 1.379,5.6186 1.379,6.0273 3.473,13.1783 4.291,14.5574 0.357,0.5619 1.175,2.5029 1.839,4.3417 1.634,4.4949 5.414,13.0761 6.129,13.8934 0.664,0.7661 3.167,5.3121 4.648,8.4279 0.562,1.2259 1.226,2.1964 1.532,2.1964 0.307,0 0.358,0.2554 0.205,0.5108 -0.153,0.3065 -0.051,0.5108 0.204,0.5108 0.307,0 0.562,0.3575 0.562,0.7662 0,0.4086 0.255,0.7661 0.511,0.7661 0.306,0 0.817,0.613 1.123,1.4304 0.358,0.766 2.861,4.393 5.619,8.019 9.705,12.974 24.058,26.97 36.879,35.959 l 3.013,2.095 h 53.48 53.479 l 2.911,-2.043 c 1.584,-1.124 3.116,-2.044 3.372,-2.044 0.306,0 0.51,-0.255 0.51,-0.51 0,-0.307 1.073,-1.226 2.452,-2.095 1.328,-0.817 3.78,-2.707 5.466,-4.188 4.648,-4.086 18.133,-17.367 17.877,-17.622 -0.102,-0.153 0.358,-0.715 1.073,-1.277 0.715,-0.562 1.481,-1.43 1.634,-1.941 0.205,-0.511 1.226,-1.89 2.299,-3.116 3.269,-3.78 9.909,-13.3825 12.157,-17.5709 1.123,-2.1964 2.553,-4.6482 3.064,-5.4143 0.562,-0.7662 2.043,-3.6266 3.32,-6.3849 1.226,-2.7582 2.708,-5.8229 3.218,-6.7934 1.073,-1.9921 4.648,-12.1567 5.67,-16.0898 0.409,-1.3791 0.817,-2.656 1.022,-2.8093 0.459,-0.3575 1.89,-6.5891 2.809,-12.2588 1.481,-9.1942 1.788,-10.2157 3.473,-11.7992 3.984,-3.6266 10.778,-1.8899 12.106,3.0647 0.562,2.1964 -0.511,17.4178 -1.839,25.335 -1.277,7.6618 -2.86,15.2725 -3.269,15.8344 -0.204,0.3064 -0.97,2.9114 -1.737,5.874 -1.481,5.7208 -4.443,14.9149 -4.954,15.3236 -0.205,0.1532 -0.715,1.3791 -1.175,2.7579 -1.737,5.108 -5.006,12.77 -5.517,12.974 -0.255,0.102 -0.408,0.409 -0.408,0.664 0,0.818 -5.363,11.442 -6.232,12.31 -0.511,0.511 -0.919,1.124 -0.919,1.43 0,0.256 -0.92,1.992 -2.043,3.831 -1.124,1.839 -2.043,3.576 -2.043,3.831 0,0.256 -0.562,0.971 -1.226,1.635 -0.664,0.664 -1.839,2.349 -2.656,3.831 -1.328,2.502 -7.407,10.828 -12.566,17.315 -1.379,1.635 -2.452,3.269 -2.452,3.576 0,0.357 -0.561,0.97 -1.225,1.379 -0.664,0.46 -2.299,2.247 -3.627,4.035 -1.379,1.788 -3.32,3.984 -4.444,4.904 -1.073,0.97 -1.941,1.89 -1.941,2.043 0,0.204 16.192,0.306 36.011,0.204 l 36.061,-0.102 -0.102,-19.563 c -0.102,-21.964 -0.153,-21.504 3.678,-25.437 3.575,-3.678 5.414,-4.189 15.732,-4.444 8.632,-0.204 13.587,0.306 16.089,1.583 2.503,1.277 5.415,4.648 6.181,7.151 1.175,3.933 1.124,43.06 -0.051,46.482 -0.919,2.758 -4.75,6.18 -7.815,6.946 -1.022,0.256 -2.656,0.716 -3.627,0.92 l -1.787,0.46 -0.256,15.783 c -0.153,8.734 -0.46,16.192 -0.664,16.651 -0.511,1.022 -2.962,2.861 -4.648,3.525 -1.839,0.664 -4.444,-0.255 -6.436,-2.299 l -1.788,-1.838 -0.153,-15.784 -0.153,-15.783 -1.89,-0.562 c -2.86,-0.766 -93.576,-0.715 -96.232,0.102 -2.248,0.664 -2.554,1.073 -3.473,4.802 -0.511,1.992 -1.022,2.809 -2.503,3.831 l -1.839,1.225 -18.746,0.154 -18.746,0.153 -0.613,2.094 c -0.306,1.175 -0.817,2.605 -1.226,3.167 -0.357,0.613 -1.736,4.648 -3.064,8.99 -1.328,4.342 -2.81,8.836 -3.32,9.96 -0.511,1.124 -1.839,5.057 -2.963,8.735 -1.788,5.976 -2.247,6.946 -4.137,8.836 -1.635,1.635 -2.605,2.145 -4.291,2.35 -1.175,0.102 -2.503,0.102 -2.911,-0.051 z"
             transform="matrix(1,0,0,-1.11644,734.15,483)"
             id="path24"
             inkscape:connector-curvature="0" />
          <path
             d="m 21.9638,212.231 c -4.5971,-0.715 -9.4496,-2.502 -10.6754,-4.035 -0.3065,-0.357 -0.7151,-1.379 -0.8684,-2.298 -0.3064,-1.482 -0.1021,-1.89 2.1453,-4.036 2.1964,-2.094 3.1669,-2.605 7.8661,-4.086 11.3395,-3.473 22.3214,-4.188 36.7766,-2.503 9.2963,1.124 12.1056,1.737 12.5142,2.81 0.1533,0.459 0.1533,2.605 -0.051,4.801 -0.3065,3.882 -1.3281,6.027 -2.9115,6.027 -1.0216,0 -11.3905,1.431 -18.7458,2.554 -9.1431,1.379 -19.7675,1.737 -26.0501,0.766 z"
             transform="matrix(1,0,0,-1.11644,734.15,483)"
             id="path26"
             inkscape:connector-curvature="0" />
          <path
             d="m 106.754,212.487 c -8.3767,-0.664 -14.9147,-1.686 -15.6298,-2.401 -1.0216,-1.021 -1.0216,-9.5 0,-10.522 0.4597,-0.46 2.3496,-0.868 4.7503,-1.073 2.1963,-0.204 5.6185,-0.715 7.5595,-1.123 12.157,-2.554 25.335,-3.525 32.69,-2.35 10.063,1.634 14.047,3.627 14.047,7.049 0,1.481 -3.729,5.108 -6.436,6.334 -8.275,3.677 -22.372,5.21 -36.981,4.086 z"
             transform="matrix(1,0,0,-1.11644,734.15,483)"
             id="path28"
             inkscape:connector-curvature="0" />
          <path
             d="m 376.449,212.691 c -5.057,-0.562 -9.45,-1.481 -14.2,-2.911 -4.546,-1.328 -5.618,-1.89 -7.815,-3.933 -2.758,-2.605 -3.269,-4.649 -1.583,-6.487 2.298,-2.656 12.412,-4.904 21.81,-4.904 4.853,0 13.638,1.022 19.359,2.196 1.43,0.256 5.772,0.971 9.654,1.482 3.882,0.562 7.202,1.123 7.406,1.328 0.511,0.46 0.766,7.151 0.409,9.143 -0.307,1.634 -0.511,1.788 -3.014,2.298 -5.874,1.175 -26.969,2.401 -32.026,1.788 z"
             transform="matrix(1,0,0,-1.11644,734.15,483)"
             id="path30"
             inkscape:connector-curvature="0" />
          <path
             d="m 459.962,212.436 c -2.809,-0.256 -8.325,-1.022 -12.258,-1.686 -3.933,-0.715 -8.735,-1.481 -10.676,-1.788 -1.89,-0.255 -3.626,-0.613 -3.729,-0.766 -0.51,-0.511 -1.328,-8.326 -1.021,-9.603 0.204,-0.715 0.766,-1.481 1.226,-1.634 0.511,-0.204 4.239,-0.715 8.326,-1.124 4.086,-0.408 8.581,-1.021 9.96,-1.277 7.457,-1.532 26.918,1.277 33.865,4.904 2.963,1.532 6.232,4.597 6.232,5.874 0,1.379 -2.452,4.086 -4.444,4.954 -5.159,2.146 -17.418,3.116 -27.481,2.146 z"
             transform="matrix(1,0,0,-1.11644,734.15,483)"
             id="path32"
             inkscape:connector-curvature="0" />
        </g>
      </g>
    </g>
  </g>
</svg>
