<svg width="1118" height="734" xmlns="http://www.w3.org/2000/svg" xmlns:xlink="http://www.w3.org/1999/xlink" overflow="hidden"><defs><clipPath id="clip0"><path d="M7 93 1125 93 1125 827 7 827Z" fill-rule="evenodd" clip-rule="evenodd"/></clipPath><clipPath id="clip1"><path d="M566 99 987 99 987 454 566 454Z" fill-rule="evenodd" clip-rule="evenodd"/></clipPath><clipPath id="clip2"><path d="M566 99 988 99 988 454 566 454Z" fill-rule="evenodd" clip-rule="evenodd"/></clipPath><clipPath id="clip3"><path d="M566 99 988 99 988 454 566 454Z" fill-rule="evenodd" clip-rule="evenodd"/></clipPath></defs><g clip-path="url(#clip0)" transform="translate(-7 -93)"><path d="M715.5 186C715.5 150.93 742.363 122.5 775.5 122.5 808.637 122.5 835.5 150.93 835.5 186 835.5 221.07 808.637 249.5 775.5 249.5 742.363 249.5 715.5 221.07 715.5 186ZM728.357 186C728.357 213.97 749.464 236.643 775.5 236.643 801.536 236.643 822.643 213.97 822.643 186 822.643 158.031 801.536 135.357 775.5 135.357 749.464 135.357 728.357 158.031 728.357 186Z" stroke="#00A1F3" stroke-miterlimit="8" fill="#00A1F3" fill-rule="evenodd"/><path d="M738.5 187.5C738.5 165.409 755.066 147.5 775.5 147.5 795.935 147.5 812.5 165.409 812.5 187.5 812.5 209.591 795.935 227.5 775.5 227.5 755.066 227.5 738.5 209.591 738.5 187.5ZM747.37 187.5C747.37 204.693 759.964 218.63 775.5 218.63 791.036 218.63 803.63 204.693 803.63 187.5 803.63 170.307 791.036 156.37 775.5 156.37 759.964 156.37 747.37 170.307 747.37 187.5Z" stroke="#00A1F3" stroke-miterlimit="8" fill="#00A1F3" fill-rule="evenodd"/><path d="M758.5 187C758.5 176.783 765.887 168.5 775 168.5 784.113 168.5 791.5 176.783 791.5 187 791.5 197.217 784.113 205.5 775 205.5 765.887 205.5 758.5 197.217 758.5 187Z" stroke="#00A1F3" stroke-miterlimit="8" fill="#00A1F3" fill-rule="evenodd"/><path d="M0 0 75 0 37.5 47Z" fill="#FFFFFF" fill-rule="evenodd" transform="matrix(1 0 0 -1 737 253)"/><g clip-path="url(#clip1)"><g clip-path="url(#clip2)"><g clip-path="url(#clip3)"><path d="M206.558 201.214C204.31 200.281 201.977 196.76 200.493 191.925 200.111 190.78 199.135 187.514 198.245 184.715 197.396 181.915 196.548 179.455 196.378 179.201 196.124 178.861 193.028 169.276 191.883 165.331 191.67 164.61 190.568 164.568 176.741 164.568 157.993 164.525 157.697 164.44 156.339 159.308 155.618 156.636 155.576 156.594 153.752 156.127 151.08 155.449 76.0065 155.491 73.7586 156.17L72.1044 156.636 72.1044 169.191C72.062 178.055 71.9347 182.085 71.553 182.848 70.9592 184.163 68.9233 185.945 67.5237 186.369 66.124 186.835 63.9608 185.945 62.3067 184.248L60.8646 182.763 60.7374 169.445 60.6101 156.127 59.0408 155.873C55.69 155.364 54.2904 154.728 52.2545 152.904 48.7765 149.765 48.7765 149.723 48.7765 130.127 48.7765 119.269 48.9462 112.525 49.2431 111.338 49.54 110.108 50.3883 108.835 51.7879 107.351 53.4845 105.569 54.3328 105.06 56.8352 104.297 59.5498 103.491 60.5253 103.406 67.5661 103.618 71.8075 103.703 76.0065 104.042 76.8548 104.297 78.9755 104.976 82.4535 108.199 83.3866 110.362 84.1077 112.059 84.1501 113.458 84.0228 128.388L83.8956 144.633 114.01 144.718 144.124 144.845 141.918 142.385C136.574 136.362 130.212 128.685 130.212 128.219 130.212 127.922 129.873 127.498 129.491 127.285 129.067 127.031 128.897 126.819 129.067 126.819 129.279 126.819 128.855 126.225 128.091 125.504 127.37 124.783 126.522 123.638 126.14 122.959 125.801 122.281 124.953 120.923 124.232 119.905 121.56 116.215 118.76 111.762 118.76 111.253 118.76 110.956 118.506 110.574 118.166 110.405 117.827 110.235 116.767 108.538 115.791 106.672 114.816 104.806 113.458 102.431 112.78 101.37 112.144 100.31 110.998 98.1468 110.277 96.4927 109.556 94.8809 108.199 91.9967 107.308 90.1305 106.418 88.2643 104.891 84.447 103.958 81.6476 102.982 78.8483 102.091 76.261 101.922 75.9217 101.752 75.5824 101.625 75.1158 101.582 74.8613 101.582 74.6493 101.328 74.0555 101.073 73.5889 100.48 72.5285 97.8499 62.3067 97.1289 58.3197 96.832 56.708 96.4502 55.2659 96.2806 55.1387 95.3899 54.5024 93.0147 32.0228 93.5661 29.5204 93.863 28.0783 96.2382 25.8728 98.2741 25.1517 99.5889 24.6852 100.013 24.7276 101.794 25.491 102.94 26 104.17 26.721 104.551 27.1452 104.976 27.6117 105.612 29.8597 106.078 32.5318 107.096 38.0033 107.139 38.2153 107.436 39.0212 107.563 39.3605 108.072 41.4812 108.581 43.6868 109.726 48.6917 111.465 54.6297 112.144 55.7749 112.44 56.2414 113.119 57.8532 113.67 59.3801 115.028 63.1126 118.166 70.2382 118.76 70.9168 119.312 71.553 121.39 75.3279 122.62 77.9152 123.086 78.9331 123.638 79.739 123.892 79.739 124.147 79.739 124.189 79.9511 124.062 80.1631 123.935 80.4176 124.02 80.5873 124.232 80.5873 124.486 80.5873 124.698 80.8842 124.698 81.2235 124.698 81.5628 124.91 81.8597 125.122 81.8597 125.377 81.8597 125.801 82.3687 126.055 83.0473 126.352 83.6835 128.431 86.6949 130.721 89.7064 138.78 100.48 150.698 112.101 161.344 119.566L163.847 121.305 208.254 121.305 252.662 121.305 255.08 119.608C256.395 118.675 257.667 117.912 257.879 117.912 258.134 117.912 258.303 117.7 258.303 117.488 258.303 117.233 259.194 116.47 260.339 115.749 261.442 115.07 263.478 113.501 264.878 112.271 268.737 108.878 279.935 97.8499 279.723 97.6378 279.638 97.5106 280.02 97.044 280.613 96.5775 281.207 96.1109 281.843 95.3899 281.971 94.9657 282.14 94.5416 282.989 93.3964 283.879 92.3785 286.594 89.2398 292.108 81.2659 293.974 77.7879 294.907 75.9641 296.095 73.9282 296.519 73.292 296.985 72.6558 298.215 70.2806 299.276 67.9902 300.294 65.6998 301.524 63.155 301.948 62.3491 302.838 60.6949 305.807 52.2545 306.656 48.9886 306.995 47.8434 307.334 46.783 307.504 46.6558 307.886 46.3589 309.073 41.1843 309.837 36.4763 311.067 28.8418 311.321 27.9935 312.721 26.6786 316.029 23.6672 321.67 25.1093 322.773 29.2235 323.24 31.0473 322.349 43.6868 321.246 50.261 320.186 56.6232 318.871 62.9429 318.532 63.4095 318.362 63.6639 317.726 65.8271 317.09 68.2871 315.86 73.0375 313.4 80.6721 312.975 81.0114 312.806 81.1387 312.382 82.1566 312 83.3018 310.558 87.5432 307.843 93.9054 307.419 94.075 307.207 94.1599 307.08 94.4143 307.08 94.6264 307.08 95.305 302.626 104.127 301.905 104.848 301.481 105.272 301.142 105.781 301.142 106.036 301.142 106.248 300.378 107.69 299.445 109.217 298.512 110.744 297.749 112.186 297.749 112.398 297.749 112.61 297.282 113.204 296.731 113.755 296.179 114.307 295.204 115.706 294.525 116.936 293.422 119.015 288.375 125.928 284.091 131.315 282.946 132.672 282.055 134.029 282.055 134.284 282.055 134.581 281.589 135.09 281.038 135.429 280.486 135.811 279.129 137.295 278.026 138.78 276.881 140.264 275.269 142.088 274.336 142.852 273.445 143.657 272.724 144.421 272.724 144.548 272.724 144.718 286.17 144.803 302.626 144.718L332.571 144.633 332.486 128.388C332.401 110.15 332.359 110.532 335.54 107.266 338.509 104.212 340.036 103.788 348.604 103.576 355.772 103.406 359.886 103.83 361.964 104.891 364.042 105.951 366.46 108.75 367.096 110.829 368.072 114.095 368.029 146.584 367.054 149.426 366.29 151.716 363.109 154.558 360.564 155.194 359.716 155.406 358.359 155.788 357.553 155.958L356.068 156.339 355.856 169.445C355.729 176.698 355.475 182.891 355.305 183.272 354.881 184.121 352.845 185.648 351.445 186.199 349.918 186.75 347.755 185.987 346.101 184.29L344.617 182.763 344.489 169.657 344.362 156.551 342.793 156.085C340.418 155.449 265.09 155.491 262.884 156.17 261.018 156.721 260.763 157.06 260 160.157 259.576 161.811 259.152 162.489 257.922 163.338L256.395 164.356 240.829 164.483 225.263 164.61 224.754 166.349C224.499 167.325 224.075 168.512 223.736 168.979 223.439 169.488 222.294 172.838 221.191 176.444 220.088 180.049 218.858 183.781 218.434 184.715 218.01 185.648 216.907 188.914 215.974 191.967 214.489 196.93 214.108 197.736 212.538 199.305 211.181 200.662 210.375 201.086 208.976 201.256 208 201.341 206.897 201.341 206.558 201.214Z" transform="matrix(1 0 0 -1.14186 566.125 454)"/><path d="M18.2382 176.232C14.4209 175.638 10.3915 174.153 9.37357 172.881 9.11909 172.584 8.77977 171.736 8.65253 170.972 8.39804 169.742 8.5677 169.403 10.4339 167.622 12.2577 165.883 13.0636 165.458 16.9657 164.228 26.3817 161.344 35.5008 160.75 47.5041 162.15 55.2235 163.083 57.5563 163.592 57.8956 164.483 58.0228 164.865 58.0228 166.646 57.8532 168.47 57.5987 171.693 56.7504 173.475 55.4356 173.475 54.5873 173.475 45.9772 174.662 39.8695 175.595 32.2773 176.741 23.4551 177.038 18.2382 176.232Z" transform="matrix(1 0 0 -1.14186 566.125 454)"/><path d="M88.646 176.444C81.69 175.892 76.261 175.044 75.6672 174.45 74.8189 173.602 74.8189 166.561 75.6672 165.713 76.0489 165.331 77.6183 164.992 79.6117 164.822 81.4356 164.653 84.2773 164.228 85.8891 163.889 95.9837 161.768 106.927 160.962 113.034 161.938 121.39 163.295 124.698 164.949 124.698 167.791 124.698 169.021 121.602 172.033 119.354 173.051 112.483 176.104 100.777 177.377 88.646 176.444Z" transform="matrix(1 0 0 -1.14186 566.125 454)"/><path d="M312.594 176.613C308.395 176.147 304.747 175.383 300.803 174.196 297.028 173.093 296.137 172.626 294.313 170.93 292.023 168.767 291.599 167.07 292.998 165.543 294.907 163.338 303.305 161.471 311.109 161.471 315.139 161.471 322.434 162.32 327.184 163.295 328.372 163.507 331.977 164.101 335.201 164.525 338.424 164.992 341.181 165.458 341.351 165.628 341.775 166.01 341.987 171.566 341.69 173.22 341.436 174.577 341.266 174.705 339.188 175.129 334.31 176.104 316.793 177.122 312.594 176.613Z" transform="matrix(1 0 0 -1.14186 566.125 454)"/><path d="M381.941 176.401C379.608 176.189 375.028 175.553 371.762 175.002 368.496 174.408 364.509 173.772 362.897 173.517 361.328 173.305 359.886 173.008 359.801 172.881 359.377 172.457 358.698 165.967 358.953 164.907 359.122 164.313 359.589 163.677 359.971 163.55 360.395 163.38 363.491 162.956 366.884 162.617 370.277 162.277 374.01 161.768 375.155 161.556 381.347 160.284 397.507 162.617 403.276 165.628 405.736 166.9 408.45 169.445 408.45 170.506 408.45 171.651 406.414 173.899 404.76 174.62 400.476 176.401 390.297 177.207 381.941 176.401Z" transform="matrix(1 0 0 -1.14186 566.125 454)"/></g></g></g><text font-family="Calibri,Calibri_MSFontService,sans-serif" font-weight="400" font-size="267" transform="translate(167.95 424)">Har<tspan fill="#00A1F3" x="481.65" y="173">AI</tspan>r<tspan x="26.9341" y="173">vest</tspan></text></g></svg>