<svg width="1574" height="781" xmlns="http://www.w3.org/2000/svg" xmlns:xlink="http://www.w3.org/1999/xlink" overflow="hidden"><defs><clipPath id="clip0"><path d="M-113 65 1461 65 1461 846-113 846Z" fill-rule="evenodd" clip-rule="evenodd"/></clipPath><clipPath id="clip1"><path d="M734 65 1241 65 1241 483 734 483Z" fill-rule="evenodd" clip-rule="evenodd"/></clipPath><clipPath id="clip2"><path d="M734 65 1241 65 1241 484 734 484Z" fill-rule="evenodd" clip-rule="evenodd"/></clipPath><clipPath id="clip3"><path d="M734 65 1241 65 1241 484 734 484Z" fill-rule="evenodd" clip-rule="evenodd"/></clipPath></defs><g clip-path="url(#clip0)" transform="translate(113 -65)"><path d="M913.5 168C913.5 126.303 945.959 92.5001 986 92.5001 1026.04 92.5001 1058.5 126.303 1058.5 168 1058.5 209.698 1026.04 243.5 986 243.5 945.959 243.5 913.5 209.698 913.5 168ZM929.035 168C929.035 201.118 954.539 227.965 986 227.965 1017.46 227.965 1042.96 201.118 1042.96 168 1042.96 134.882 1017.46 108.035 986 108.035 954.539 108.035 929.035 134.882 929.035 168Z" stroke="#00A1F3" stroke-miterlimit="8" fill="#00A1F3" fill-rule="evenodd"/><path d="M942.5 169C942.5 142.767 962.2 121.5 986.5 121.5 1010.8 121.5 1030.5 142.767 1030.5 169 1030.5 195.234 1010.8 216.5 986.5 216.5 962.2 216.5 942.5 195.234 942.5 169ZM953.048 169C953.048 189.408 968.025 205.952 986.5 205.952 1004.98 205.952 1019.95 189.408 1019.95 169 1019.95 148.592 1004.98 132.048 986.5 132.048 968.025 132.048 953.048 148.592 953.048 169Z" stroke="#00A1F3" stroke-miterlimit="8" fill="#00A1F3" fill-rule="evenodd"/><path d="M965.5 168.5C965.5 156.35 974.678 146.5 986 146.5 997.322 146.5 1006.5 156.35 1006.5 168.5 1006.5 180.65 997.322 190.5 986 190.5 974.678 190.5 965.5 180.65 965.5 168.5Z" stroke="#00A1F3" stroke-miterlimit="8" fill="#00A1F3" fill-rule="evenodd"/><path d="M0 0 90 0 45 56Z" fill="#FFFFFF" fill-rule="evenodd" transform="matrix(1 0 0 -1 941 247)"/><g clip-path="url(#clip1)"><g clip-path="url(#clip2)"><g clip-path="url(#clip3)"><path d="M248.753 242.317C246.045 241.193 243.236 236.953 241.448 231.131 240.989 229.751 239.814 225.818 238.741 222.447 237.72 219.076 236.698 216.113 236.494 215.807 236.187 215.398 232.459 203.855 231.079 199.104 230.824 198.236 229.496 198.185 212.844 198.185 190.268 198.134 189.91 198.032 188.276 191.851 187.407 188.633 187.356 188.582 185.16 188.02 181.942 187.203 91.5328 187.254 88.8256 188.071L86.8336 188.633 86.8336 203.752C86.7825 214.428 86.6292 219.28 86.1695 220.2 85.4544 221.783 83.0027 223.928 81.3171 224.439 79.6315 225.001 77.0265 223.928 75.0344 221.885L73.2977 220.098 73.1445 204.059 72.9913 188.02 71.1014 187.714C67.0662 187.101 65.3806 186.335 62.9288 184.138 58.7403 180.358 58.7403 180.307 58.7403 156.709 58.7403 143.633 58.9447 135.511 59.3022 134.081 59.6598 132.6 60.6813 131.068 62.3669 129.28 64.4101 127.135 65.4316 126.522 68.4453 125.602 71.7143 124.632 72.8891 124.53 81.3682 124.785 86.476 124.887 91.5328 125.296 92.5544 125.602 95.1083 126.419 99.2967 130.301 100.42 132.906 101.289 134.95 101.34 136.635 101.187 154.615L101.033 174.178 137.299 174.28 173.565 174.433 170.909 171.471C164.473 164.218 156.811 154.972 156.811 154.411 156.811 154.053 156.403 153.542 155.943 153.287 155.432 152.98 155.228 152.725 155.432 152.725 155.687 152.725 155.177 152.01 154.257 151.141 153.389 150.273 152.367 148.894 151.908 148.077 151.499 147.26 150.477 145.625 149.609 144.399 146.391 139.955 143.02 134.592 143.02 133.979 143.02 133.622 142.714 133.162 142.305 132.958 141.896 132.753 140.619 130.71 139.444 128.463 138.27 126.215 136.635 123.355 135.818 122.078 135.052 120.801 133.673 118.196 132.804 116.204 131.936 114.263 130.301 110.789 129.229 108.542 128.156 106.294 126.317 101.697 125.194 98.3262 124.019 94.9551 122.946 91.8393 122.742 91.4306 122.537 91.022 122.384 90.4601 122.333 90.1537 122.333 89.8983 122.027 89.1832 121.72 88.6213 121.005 87.3443 117.838 75.0344 116.97 70.233 116.612 68.292 116.153 66.5554 115.948 66.4021 114.876 65.636 112.015 38.5643 112.679 35.5507 113.037 33.814 115.897 31.1579 118.349 30.2896 119.932 29.7277 120.443 29.7788 122.589 30.6982 123.968 31.3112 125.449 32.1795 125.909 32.6903 126.419 33.2521 127.186 35.9593 127.747 39.1773 128.973 45.7664 129.024 46.0218 129.382 46.9923 129.535 47.4009 130.148 49.9548 130.761 52.6109 132.14 58.6382 134.234 65.7892 135.052 67.1683 135.409 67.7302 136.227 69.6712 136.891 71.51 138.525 76.0049 142.305 84.5861 143.02 85.4034 143.684 86.1695 146.187 90.7155 147.668 93.8313 148.23 95.0572 148.894 96.0277 149.2 96.0277 149.507 96.0277 149.558 96.2831 149.405 96.5385 149.252 96.845 149.354 97.0493 149.609 97.0493 149.916 97.0493 150.171 97.4068 150.171 97.8155 150.171 98.2241 150.426 98.5816 150.682 98.5816 150.988 98.5816 151.499 99.1946 151.805 100.012 152.163 100.778 154.666 104.405 157.424 108.031 167.129 121.005 181.482 135.001 194.303 143.99L197.316 146.085 250.796 146.085 304.275 146.085 307.186 144.042C308.77 142.918 310.302 141.998 310.558 141.998 310.864 141.998 311.068 141.743 311.068 141.488 311.068 141.181 312.141 140.262 313.52 139.393 314.848 138.576 317.3 136.686 318.986 135.205 323.634 131.119 337.119 117.838 336.863 117.583 336.761 117.43 337.221 116.868 337.936 116.306 338.651 115.744 339.417 114.876 339.57 114.365 339.775 113.854 340.796 112.475 341.869 111.249 345.138 107.469 351.778 97.8665 354.026 93.6781 355.149 91.4817 356.579 89.0299 357.09 88.2638 357.652 87.4976 359.133 84.6372 360.41 81.8789 361.636 79.1207 363.118 76.056 363.628 75.0855 364.701 73.0934 368.276 62.9288 369.298 58.9957 369.707 57.6166 370.115 56.3397 370.32 56.1864 370.779 55.8289 372.21 49.5973 373.129 43.9276 374.61 34.7334 374.917 33.7119 376.602 32.1284 380.586 28.5018 387.38 30.2385 388.708 35.1931 389.27 37.3895 388.197 52.6109 386.869 60.5281 385.592 68.1899 384.009 75.8006 383.6 76.3625 383.396 76.6689 382.63 79.2739 381.863 82.2365 380.382 87.9573 377.42 97.1514 376.909 97.5601 376.704 97.7133 376.194 98.9392 375.734 100.318 373.997 105.426 370.728 113.088 370.217 113.292 369.962 113.394 369.809 113.701 369.809 113.956 369.809 114.774 364.446 125.398 363.577 126.266 363.066 126.777 362.658 127.39 362.658 127.696 362.658 127.952 361.738 129.688 360.615 131.527 359.491 133.366 358.572 135.103 358.572 135.358 358.572 135.614 358.01 136.329 357.346 136.993 356.682 137.657 355.507 139.342 354.69 140.824 353.362 143.326 347.283 151.652 342.124 158.139 340.745 159.774 339.672 161.408 339.672 161.715 339.672 162.072 339.111 162.685 338.447 163.094 337.783 163.554 336.148 165.341 334.82 167.129 333.441 168.917 331.5 171.113 330.376 172.033 329.303 173.003 328.435 173.923 328.435 174.076 328.435 174.28 344.627 174.382 364.446 174.28L400.507 174.178 400.405 154.615C400.303 132.651 400.252 133.111 404.083 129.178 407.658 125.5 409.497 124.989 419.815 124.734 428.447 124.53 433.402 125.04 435.904 126.317 438.407 127.594 441.319 130.965 442.085 133.468 443.26 137.401 443.209 176.528 442.034 179.95 441.115 182.708 437.284 186.13 434.219 186.896 433.197 187.152 431.563 187.612 430.592 187.816L428.805 188.276 428.549 204.059C428.396 212.793 428.089 220.251 427.885 220.71 427.374 221.732 424.923 223.571 423.237 224.235 421.398 224.899 418.793 223.98 416.801 221.936L415.013 220.098 414.86 204.314 414.707 188.531 412.817 187.969C409.957 187.203 319.241 187.254 316.585 188.071 314.337 188.735 314.031 189.144 313.112 192.873 312.601 194.865 312.09 195.682 310.609 196.704L308.77 197.929 290.024 198.083 271.278 198.236 270.665 200.33C270.359 201.505 269.848 202.935 269.439 203.497 269.082 204.11 267.703 208.145 266.375 212.487 265.047 216.829 263.565 221.323 263.055 222.447 262.544 223.571 261.216 227.504 260.092 231.182 258.304 237.158 257.845 238.128 255.955 240.018 254.32 241.653 253.35 242.163 251.664 242.368 250.489 242.47 249.161 242.47 248.753 242.317Z" transform="matrix(1 0 0 -1.11644 734.15 483)"/><path d="M21.9638 212.231C17.3667 211.516 12.5142 209.729 11.2884 208.196 10.9819 207.839 10.5733 206.817 10.42 205.898 10.1136 204.416 10.3179 204.008 12.5653 201.862 14.7617 199.768 15.7322 199.257 20.4314 197.776 31.7709 194.303 42.7528 193.588 57.208 195.273 66.5043 196.397 69.3136 197.01 69.7222 198.083 69.8755 198.542 69.8755 200.688 69.6712 202.884 69.3647 206.766 68.3431 208.911 66.7597 208.911 65.7381 208.911 55.3692 210.342 48.0139 211.465 38.8708 212.844 28.2464 213.202 21.9638 212.231Z" transform="matrix(1 0 0 -1.11644 734.15 483)"/><path d="M106.754 212.487C98.3773 211.823 91.8393 210.801 91.1242 210.086 90.1026 209.065 90.1026 200.586 91.1242 199.564 91.5839 199.104 93.4738 198.696 95.8745 198.491 98.0708 198.287 101.493 197.776 103.434 197.368 115.591 194.814 128.769 193.843 136.124 195.018 146.187 196.652 150.171 198.645 150.171 202.067 150.171 203.548 146.442 207.175 143.735 208.401 135.46 212.078 121.363 213.611 106.754 212.487Z" transform="matrix(1 0 0 -1.11644 734.15 483)"/><path d="M376.449 212.691C371.392 212.129 366.999 211.21 362.249 209.78 357.703 208.452 356.631 207.89 354.434 205.847 351.676 203.242 351.165 201.198 352.851 199.36 355.149 196.704 365.263 194.456 374.661 194.456 379.514 194.456 388.299 195.478 394.02 196.652 395.45 196.908 399.792 197.623 403.674 198.134 407.556 198.696 410.876 199.257 411.08 199.462 411.591 199.922 411.846 206.613 411.489 208.605 411.182 210.239 410.978 210.393 408.475 210.903 402.601 212.078 381.506 213.304 376.449 212.691Z" transform="matrix(1 0 0 -1.11644 734.15 483)"/><path d="M459.962 212.436C457.153 212.18 451.637 211.414 447.704 210.75 443.771 210.035 438.969 209.269 437.028 208.962 435.138 208.707 433.402 208.349 433.299 208.196 432.789 207.685 431.971 199.87 432.278 198.593 432.482 197.878 433.044 197.112 433.504 196.959 434.015 196.755 437.743 196.244 441.83 195.835 445.916 195.427 450.411 194.814 451.79 194.558 459.247 193.026 478.708 195.835 485.655 199.462 488.618 200.994 491.887 204.059 491.887 205.336 491.887 206.715 489.435 209.422 487.443 210.29 482.284 212.436 470.025 213.406 459.962 212.436Z" transform="matrix(1 0 0 -1.11644 734.15 483)"/></g></g></g><text font-family="Calibri,Calibri_MSFontService,sans-serif" font-weight="400" font-size="267" transform="translate(48.2384 615)">Harvest<tspan fill="#00A1F3" x="830.54" y="0">AI</tspan>r</text></g></svg>